<?xml version="1.0" encoding="UTF-8"?>
<!DOCTYPE svg PUBLIC "-//W3C//DTD SVG 1.1//EN" "http://www.w3.org/Graphics/SVG/1.1/DTD/svg11.dtd">
<svg xmlns="http://www.w3.org/2000/svg" version="1.1" width="2000px" height="500px" style="shape-rendering:geometricPrecision; text-rendering:geometricPrecision; image-rendering:optimizeQuality; fill-rule:evenodd; clip-rule:evenodd" xmlns:xlink="http://www.w3.org/1999/xlink">
<g><path style="opacity:0.989" fill="#a9d617" d="M 182.5,80.5 C 245.16,76.9788 297.493,98.1454 339.5,144C 333.672,151.326 327.672,158.493 321.5,165.5C 310.062,156.898 299.062,147.732 288.5,138C 275.963,129.157 262.296,122.49 247.5,118C 238.93,116.11 230.263,114.943 221.5,114.5C 221.5,177.167 221.5,239.833 221.5,302.5C 210.5,302.5 199.5,302.5 188.5,302.5C 188.667,240.166 188.5,177.832 188,115.5C 147.16,122.405 114.16,142.071 89,174.5C 79.6613,167.326 71.1613,159.326 63.5,150.5C 94.1886,112.193 133.855,88.8599 182.5,80.5 Z"/></g>
<g><path style="opacity:0.994" fill="#384347" d="M 296.5,153.5 C 302.965,158.461 309.298,163.628 315.5,169C 316.517,170.049 316.684,171.216 316,172.5C 299.05,191.619 281.55,210.286 263.5,228.5C 255.799,218.299 246.632,209.632 236,202.5C 235.333,190.5 235.333,178.5 236,166.5C 245.667,172.167 255.333,177.833 265,183.5C 275.698,173.633 286.198,163.633 296.5,153.5 Z"/></g>
<g><path style="opacity:0.995" fill="#384347" d="M 56.5,160.5 C 65.6955,167.35 74.3622,175.016 82.5,183.5C 61.6171,227.487 59.7838,272.153 77,317.5C 99.6484,363.248 136.482,390.248 187.5,398.5C 188.499,386.852 188.832,375.186 188.5,363.5C 199.167,363.5 209.833,363.5 220.5,363.5C 220.5,374.833 220.5,386.167 220.5,397.5C 240.04,397.865 258.374,393.365 275.5,384C 282.167,379.333 288.833,374.667 295.5,370C 283.315,357.116 271.482,343.95 260,330.5C 230.747,352.181 198.914,357.014 164.5,345C 146.694,335.194 132.861,321.361 123,303.5C 102.17,257.63 110.004,217.463 146.5,183C 154.999,176.003 164.666,171.503 175.5,169.5C 175.832,181.186 175.499,192.852 174.5,204.5C 148.337,224.099 139.837,249.766 149,281.5C 168.088,316.862 195.921,326.029 232.5,309C 242.494,303.51 251.494,296.677 259.5,288.5C 286.991,313.491 313.657,339.324 339.5,366C 321.532,390.287 298.532,408.287 270.5,420C 205.148,443.219 145.148,433.552 90.5,391C 44.194,350.43 24.694,299.263 32,237.5C 36.4898,210.536 44.6565,184.869 56.5,160.5 Z"/></g>
<g><path style="opacity:0.976" fill="#405469" d="M 441.5,184.5 C 469.711,180.843 493.211,189.51 512,210.5C 514.886,214.598 515.219,218.931 513,223.5C 505.311,230.023 497.478,236.356 489.5,242.5C 486.963,240.798 484.963,238.631 483.5,236C 486.261,231.398 486.095,226.898 483,222.5C 466.294,210.542 448.794,209.375 430.5,219C 421.053,226.053 415.887,235.553 415,247.5C 411.794,281.274 423.961,307.774 451.5,327C 472.909,337.744 494.575,338.077 516.5,328C 527.364,323.407 537.031,317.074 545.5,309C 550.557,308.123 553.391,310.29 554,315.5C 556.68,313.124 558.013,310.124 558,306.5C 558.667,296.167 558.667,285.833 558,275.5C 556.12,270.625 553.12,266.625 549,263.5C 548.182,260.773 548.348,258.106 549.5,255.5C 554.086,252.747 556.919,248.747 558,243.5C 558.667,231.833 558.667,220.167 558,208.5C 557.958,202.629 555.124,198.963 549.5,197.5C 547.814,193.779 548.481,190.613 551.5,188C 565.167,187.333 578.833,187.333 592.5,188C 595.207,189.864 596.041,192.364 595,195.5C 591.143,198.349 588.477,202.015 587,206.5C 586.333,219.167 586.333,231.833 587,244.5C 588.477,248.985 591.143,252.651 595,255.5C 595.667,258.167 595.667,260.833 595,263.5C 591.143,266.349 588.477,270.015 587,274.5C 586.5,282.493 586.334,290.493 586.5,298.5C 600.504,298.667 614.504,298.5 628.5,298C 632.276,296.725 634.943,294.225 636.5,290.5C 639.612,289.017 642.445,289.35 645,291.5C 645.667,302.5 645.667,313.5 645,324.5C 644.5,325 644,325.5 643.5,326C 613.494,326.167 583.494,326.667 553.5,327.5C 544.492,343.656 530.826,353.49 512.5,357C 488.102,362.58 464.102,361.247 440.5,353C 413.606,340.261 396.273,319.427 388.5,290.5C 386.09,281.617 384.257,272.617 383,263.5C 374.333,256.833 374.333,250.167 383,243.5C 390.054,211.28 409.554,191.614 441.5,184.5 Z"/></g>
<g><path style="opacity:0.973" fill="#405469" d="M 823.5,185.5 C 833.387,184.848 841.22,188.515 847,196.5C 858.885,222.935 870.218,249.602 881,276.5C 891.561,251.482 901.728,226.315 911.5,201C 909.869,199.074 908.035,197.24 906,195.5C 904.959,192.364 905.793,189.864 908.5,188C 922.5,187.333 936.5,187.333 950.5,188C 953.207,189.864 954.041,192.364 953,195.5C 948.872,198.385 945.206,201.719 942,205.5C 934.485,221.172 928.152,237.172 923,253.5C 926.151,256.088 927.151,259.421 926,263.5C 921.296,266.692 916.962,270.358 913,274.5C 906.391,289.385 900.058,304.385 894,319.5C 889.532,326.085 883.365,328.252 875.5,326C 872.804,325.31 870.637,323.81 869,321.5C 862,305.5 855,289.5 848,273.5C 844.31,270.309 840.477,267.309 836.5,264.5C 835.345,261.554 835.179,258.554 836,255.5C 837.757,254.881 838.924,253.714 839.5,252C 834,238.833 828.5,225.667 823,212.5C 819.774,207.223 815.608,206.223 810.5,209.5C 805.747,208.357 804.247,205.357 806,200.5C 808.654,191.672 814.488,186.672 823.5,185.5 Z"/></g>
<g><path style="opacity:0.975" fill="#405469" d="M 1730.5,185.5 C 1755.11,184.727 1775.61,193.393 1792,211.5C 1796.42,216.533 1796.59,221.699 1792.5,227C 1784.91,232.713 1777.41,238.546 1770,244.5C 1767.65,242.317 1765.48,239.984 1763.5,237.5C 1767.33,232.779 1767.17,228.113 1763,223.5C 1746.38,212.464 1729.21,211.63 1711.5,221C 1694.53,234.354 1689.03,251.52 1695,272.5C 1708.05,298.264 1728.22,306.098 1755.5,296C 1760.72,293.612 1764.39,289.778 1766.5,284.5C 1765.07,282.669 1764.57,280.669 1765,278.5C 1766.68,276.649 1768.52,274.982 1770.5,273.5C 1778.93,278.797 1787.09,284.463 1795,290.5C 1795.82,293.964 1795.48,297.298 1794,300.5C 1772.96,325.396 1746.46,333.896 1714.5,326C 1685.15,316.821 1668.32,296.987 1664,266.5C 1662.37,263.872 1660.37,261.539 1658,259.5C 1657.18,256.446 1657.35,253.446 1658.5,250.5C 1660.48,249.018 1662.32,247.351 1664,245.5C 1672.2,209.795 1694.36,189.795 1730.5,185.5 Z"/></g>
<g><path style="opacity:0.971" fill="#405468" d="M 677.5,187.5 C 707.169,187.333 736.835,187.5 766.5,188C 771.631,188.816 775.131,191.649 777,196.5C 777.667,205.167 777.667,213.833 777,222.5C 775.475,225.087 773.308,225.92 770.5,225C 768.13,221.558 765.13,218.891 761.5,217C 744.837,216.5 728.17,216.333 711.5,216.5C 711.5,225.167 711.5,233.833 711.5,242.5C 727.837,242.333 744.17,242.5 760.5,243C 765.865,255.312 762.198,264.312 749.5,270C 736.925,270.177 724.425,270.677 712,271.5C 711.333,280.167 711.333,288.833 712,297.5C 728.426,298.658 744.926,298.824 761.5,298C 765.146,296.018 768.146,293.351 770.5,290C 773.308,289.08 775.475,289.913 777,292.5C 777.667,303.167 777.667,313.833 777,324.5C 776.5,325 776,325.5 775.5,326C 742.5,326.667 709.5,326.667 676.5,326C 674.604,324.192 674.104,322.025 675,319.5C 678.824,316.676 681.491,313.009 683,308.5C 683.667,295.5 683.667,282.5 683,269.5C 681.032,265.54 678.365,262.207 675,259.5C 673.535,253.885 675.202,249.551 680,246.5C 681.439,244.725 682.439,242.725 683,240.5C 683.667,228.833 683.667,217.167 683,205.5C 682.074,201.287 679.574,198.62 675.5,197.5C 673.859,193.63 674.526,190.297 677.5,187.5 Z"/></g>
<g><path style="opacity:0.961" fill="#405468" d="M 982.5,187.5 C 1012.17,187.333 1041.84,187.5 1071.5,188C 1077.55,189.053 1081.39,192.553 1083,198.5C 1083.67,206.5 1083.67,214.5 1083,222.5C 1081.14,225.207 1078.64,226.041 1075.5,225C 1073.42,221.25 1070.42,218.584 1066.5,217C 1050.17,216.5 1033.84,216.333 1017.5,216.5C 1017.5,225.167 1017.5,233.833 1017.5,242.5C 1033.84,242.333 1050.17,242.5 1066.5,243C 1068.83,244.333 1069.83,246.333 1069.5,249C 1069.32,258.027 1065.32,264.693 1057.5,269C 1044.24,270.444 1030.91,270.944 1017.5,270.5C 1017.5,279.833 1017.5,289.167 1017.5,298.5C 1033.84,298.667 1050.17,298.5 1066.5,298C 1070.44,296.39 1073.44,293.723 1075.5,290C 1078.64,288.959 1081.14,289.793 1083,292.5C 1083.67,302.833 1083.67,313.167 1083,323.5C 1082.17,324.333 1081.33,325.167 1080.5,326C 1047.5,326.667 1014.5,326.667 981.5,326C 979.604,324.192 979.104,322.025 980,319.5C 983.442,317.13 986.109,314.13 988,310.5C 988.667,296.5 988.667,282.5 988,268.5C 986.093,264.59 983.427,261.256 980,258.5C 978.628,253.92 979.962,250.586 984,248.5C 985.766,246.404 987.099,244.071 988,241.5C 988.667,229.167 988.667,216.833 988,204.5C 986.961,200.629 984.461,198.295 980.5,197.5C 978.859,193.63 979.526,190.297 982.5,187.5 Z"/></g>
<g><path style="opacity:0.972" fill="#405469" d="M 1119.5,187.5 C 1139.84,187.333 1160.17,187.5 1180.5,188C 1199.41,188.525 1213.24,197.025 1222,213.5C 1229.88,238.711 1222.72,258.044 1200.5,271.5C 1204.55,281.939 1209.88,291.605 1216.5,300.5C 1221.05,304.825 1225.71,305.159 1230.5,301.5C 1232.38,302.093 1234.22,302.76 1236,303.5C 1238.23,319.956 1230.9,328.289 1214,328.5C 1202.44,328.391 1193.77,323.391 1188,313.5C 1182.18,300.523 1175.85,287.857 1169,275.5C 1164.26,274.531 1159.43,274.197 1154.5,274.5C 1154.33,286.838 1154.5,299.171 1155,311.5C 1156.6,314.559 1159.1,316.559 1162.5,317.5C 1164.13,320.896 1163.46,323.729 1160.5,326C 1146.5,326.667 1132.5,326.667 1118.5,326C 1116.6,324.192 1116.1,322.025 1117,319.5C 1120.45,316.721 1123.12,313.388 1125,309.5C 1125.67,295.833 1125.67,282.167 1125,268.5C 1123.41,264.745 1120.91,261.745 1117.5,259.5C 1116.35,256.894 1116.18,254.227 1117,251.5C 1120.4,248.365 1123.07,244.698 1125,240.5C 1125.67,228.833 1125.67,217.167 1125,205.5C 1124.37,201.042 1121.87,198.375 1117.5,197.5C 1115.86,193.63 1116.53,190.297 1119.5,187.5 Z M 1154.5,216.5 C 1164.84,216.334 1175.17,216.5 1185.5,217C 1196.44,222.478 1198.94,230.645 1193,241.5C 1191.42,243.041 1189.59,244.208 1187.5,245C 1176.58,246.431 1165.58,246.931 1154.5,246.5C 1154.5,236.5 1154.5,226.5 1154.5,216.5 Z"/></g>
<g><path style="opacity:0.968" fill="#405469" d="M 1531.5,187.5 C 1561.5,187.333 1591.5,187.5 1621.5,188C 1626.6,189.433 1630.1,192.6 1632,197.5C 1632.67,205.833 1632.67,214.167 1632,222.5C 1630.47,225.087 1628.31,225.92 1625.5,225C 1622.71,222.09 1619.71,219.423 1616.5,217C 1599.84,216.5 1583.17,216.333 1566.5,216.5C 1566.5,225.167 1566.5,233.833 1566.5,242.5C 1582.84,242.333 1599.17,242.5 1615.5,243C 1619.94,251.431 1618.61,259.097 1611.5,266C 1609.83,267 1608.17,268 1606.5,269C 1593.24,270.444 1579.91,270.944 1566.5,270.5C 1566.5,279.833 1566.5,289.167 1566.5,298.5C 1582.84,298.667 1599.17,298.5 1615.5,298C 1619.42,296.416 1622.42,293.75 1624.5,290C 1627.64,288.959 1630.14,289.793 1632,292.5C 1632.67,302.833 1632.67,313.167 1632,323.5C 1631.17,324.333 1630.33,325.167 1629.5,326C 1596.83,326.667 1564.17,326.667 1531.5,326C 1528.91,324.475 1528.08,322.308 1529,319.5C 1532.72,317.443 1535.39,314.443 1537,310.5C 1538.57,297.548 1538.9,284.548 1538,271.5C 1536.59,266.086 1533.59,261.753 1529,258.5C 1528.33,256.167 1528.33,253.833 1529,251.5C 1533.73,248.382 1536.73,244.049 1538,238.5C 1538.89,226.784 1538.55,215.117 1537,203.5C 1535.54,200.203 1533.04,198.203 1529.5,197.5C 1527.86,193.63 1528.53,190.297 1531.5,187.5 Z"/></g>
<g><path style="opacity:0.972" fill="#405468" d="M 1828.5,187.5 C 1841.84,187.333 1855.17,187.5 1868.5,188C 1871.29,190.21 1872.12,193.044 1871,196.5C 1866.39,198.77 1863.73,202.436 1863,207.5C 1862.5,219.162 1862.33,230.829 1862.5,242.5C 1881.83,242.5 1901.17,242.5 1920.5,242.5C 1920.67,230.162 1920.5,217.829 1920,205.5C 1919.07,201.287 1916.57,198.62 1912.5,197.5C 1910.81,193.779 1911.48,190.613 1914.5,188C 1928.17,187.333 1941.83,187.333 1955.5,188C 1958.21,189.864 1959.04,192.364 1958,195.5C 1954.67,197.5 1952,200.167 1950,203.5C 1949.33,217.833 1949.33,232.167 1950,246.5C 1951.91,250.41 1954.57,253.744 1958,256.5C 1958.67,258.833 1958.67,261.167 1958,263.5C 1954.28,265.557 1951.61,268.557 1950,272.5C 1949.33,285.5 1949.33,298.5 1950,311.5C 1951.46,314.797 1953.96,316.797 1957.5,317.5C 1959.13,320.896 1958.46,323.729 1955.5,326C 1941.5,326.667 1927.5,326.667 1913.5,326C 1911.6,324.192 1911.1,322.025 1912,319.5C 1915.42,316.746 1918.09,313.413 1920,309.5C 1920.5,296.504 1920.67,283.504 1920.5,270.5C 1901.17,270.5 1881.83,270.5 1862.5,270.5C 1862.33,282.838 1862.5,295.171 1863,307.5C 1863.78,312.406 1866.44,315.739 1871,317.5C 1871.98,320.669 1871.48,323.503 1869.5,326C 1855.5,326.667 1841.5,326.667 1827.5,326C 1825.56,323.847 1825.06,321.347 1826,318.5C 1830.15,316.347 1832.82,313.014 1834,308.5C 1834.67,295.833 1834.67,283.167 1834,270.5C 1832.52,266.015 1829.86,262.349 1826,259.5C 1824.54,253.885 1826.2,249.551 1831,246.5C 1832.44,244.725 1833.44,242.725 1834,240.5C 1834.67,229.167 1834.67,217.833 1834,206.5C 1833.38,201.555 1830.72,198.555 1826,197.5C 1824.86,193.579 1825.69,190.246 1828.5,187.5 Z"/></g>
<g><path style="opacity:0.971" fill="#415569" d="M 1414.5,188.5 C 1443.17,188.5 1471.83,188.5 1500.5,188.5C 1500.67,200.171 1500.5,211.838 1500,223.5C 1497.5,225.478 1494.67,225.978 1491.5,225C 1490.07,220.566 1487.07,217.899 1482.5,217C 1475.17,216.5 1467.84,216.334 1460.5,216.5C 1460.33,224.84 1460.5,233.173 1461,241.5C 1462.48,245.985 1465.14,249.651 1469,252.5C 1469.67,254.833 1469.67,257.167 1469,259.5C 1465.6,262.635 1462.93,266.302 1461,270.5C 1460.33,283.833 1460.33,297.167 1461,310.5C 1462.33,314.5 1465,317.167 1469,318.5C 1470.12,321.956 1469.29,324.79 1466.5,327C 1452.83,327.667 1439.17,327.667 1425.5,327C 1422.54,324.729 1421.87,321.896 1423.5,318.5C 1427.23,316.943 1429.73,314.276 1431,310.5C 1431.67,296.833 1431.67,283.167 1431,269.5C 1429.28,265.397 1426.62,262.064 1423,259.5C 1422.33,257.167 1422.33,254.833 1423,252.5C 1426.4,249.365 1429.07,245.698 1431,241.5C 1431.5,233.173 1431.67,224.84 1431.5,216.5C 1426.07,216.161 1420.74,216.661 1415.5,218C 1412.91,219.339 1411.41,221.506 1411,224.5C 1409.97,235.972 1415.14,240.639 1426.5,238.5C 1426.52,240.06 1426.85,241.56 1427.5,243C 1424.06,251.402 1417.72,255.902 1408.5,256.5C 1395.11,254.946 1386.95,247.612 1384,234.5C 1380.59,209.801 1390.76,194.468 1414.5,188.5 Z"/></g>
</svg>
